# Blender v2.79 (sub 0) OBJ File: 'tatamigattai.blend'
# www.blender.org
mtllib tatami.mtl
o Cube.003_Cube.005
v -2.045193 -0.060000 -1.046781
v -2.045193 0.060000 -1.046781
v -1.905193 -0.060000 -1.046781
v -1.905193 0.060000 -1.046781
v -2.045193 -0.060000 1.013219
v -2.045193 0.060000 1.013219
v -1.905194 -0.060000 1.013219
v -1.905194 0.060000 1.013219
vt -0.024428 0.947862
vt -0.024428 0.048012
vt 1.025395 0.048012
vt 1.025395 0.947861
vt -0.024428 0.043301
vt -0.024428 -0.856543
vt 29.970354 -0.856563
vt 29.970354 0.043301
vt 2.079931 0.048012
vt 2.079931 0.947862
vt 1.030107 0.947862
vt 1.030107 0.048012
vt 29.970354 -1.761139
vt 29.970354 -0.861295
vt -0.024428 -0.861275
vt -0.024428 -1.761139
vt -0.024428 -3.870194
vt 29.970743 -3.870245
vt 29.970743 -2.820411
vt -0.024428 -2.820395
vt 29.970747 -1.765852
vt -0.024428 -1.765850
vt -0.024425 -2.815683
vt 29.970747 -2.815652
vn 0.0000 0.0000 -1.0000
vn 1.0000 0.0000 0.0000
vn 0.0000 0.0000 1.0000
vn -1.0000 0.0000 0.0000
vn 0.0000 -1.0000 -0.0000
vn 0.0000 1.0000 -0.0000
usemtl Material004
s off
f 1/1/1 2/2/1 4/3/1 3/4/1
f 3/5/2 4/6/2 8/7/2 7/8/2
f 7/9/3 8/10/3 6/11/3 5/12/3
f 5/13/4 6/14/4 2/15/4 1/16/4
f 3/17/5 7/18/5 5/19/5 1/20/5
f 8/21/6 4/22/6 2/23/6 6/24/6
o Cube.002_Cube.004
v 1.883091 -0.060000 -1.046781
v 1.883091 0.060000 -1.046781
v 2.023091 -0.060000 -1.046781
v 2.023091 0.060000 -1.046781
v 1.883091 -0.060000 1.013219
v 1.883091 0.060000 1.013219
v 2.023091 -0.060000 1.013219
v 2.023091 0.060000 1.013219
vt -0.024428 0.947862
vt -0.024428 0.048012
vt 1.025395 0.048012
vt 1.025395 0.947861
vt -0.024428 0.043301
vt -0.024428 -0.856543
vt 29.970354 -0.856563
vt 29.970354 0.043301
vt 2.079931 0.048012
vt 2.079931 0.947862
vt 1.030107 0.947862
vt 1.030107 0.048012
vt 29.970354 -1.761139
vt 29.970354 -0.861295
vt -0.024428 -0.861275
vt -0.024428 -1.761139
vt -0.024428 -3.870194
vt 29.970743 -3.870245
vt 29.970743 -2.820411
vt -0.024428 -2.820395
vt 29.970747 -1.765852
vt -0.024428 -1.765850
vt -0.024425 -2.815683
vt 29.970747 -2.815652
vn 0.0000 0.0000 -1.0000
vn 1.0000 0.0000 0.0000
vn 0.0000 0.0000 1.0000
vn -1.0000 0.0000 -0.0000
vn 0.0000 -1.0000 0.0000
vn 0.0000 1.0000 0.0000
usemtl Material004
s off
f 9/25/7 10/26/7 12/27/7 11/28/7
f 11/29/8 12/30/8 16/31/8 15/32/8
f 15/33/9 16/34/9 14/35/9 13/36/9
f 13/37/10 14/38/10 10/39/10 9/40/10
f 11/41/11 15/42/11 13/43/11 9/44/11
f 16/45/12 12/46/12 10/47/12 14/48/12
o Cube.001_Cube.002
v -2.000000 -0.060000 1.006574
v -2.000000 0.060000 1.006574
v -2.000000 -0.060000 0.866574
v -2.000000 0.060000 0.866574
v 2.000000 -0.060000 1.006574
v 2.000000 0.060000 1.006574
v 2.000000 -0.060000 0.866574
v 2.000000 0.060000 0.866574
vt -0.024428 0.947862
vt -0.024428 0.048012
vt 1.025395 0.048012
vt 1.025395 0.947861
vt -0.024428 0.043301
vt -0.024428 -0.856543
vt 29.970354 -0.856563
vt 29.970354 0.043301
vt 2.079931 0.048012
vt 2.079931 0.947862
vt 1.030107 0.947862
vt 1.030107 0.048012
vt 29.970354 -1.761139
vt 29.970354 -0.861295
vt -0.024428 -0.861275
vt -0.024428 -1.761139
vt -0.024428 -3.870194
vt 29.970743 -3.870245
vt 29.970743 -2.820411
vt -0.024428 -2.820395
vt 29.970747 -1.765852
vt -0.024428 -1.765850
vt -0.024425 -2.815683
vt 29.970747 -2.815652
vn -1.0000 0.0000 0.0000
vn 0.0000 0.0000 -1.0000
vn 1.0000 0.0000 0.0000
vn 0.0000 0.0000 1.0000
vn 0.0000 -1.0000 0.0000
vn 0.0000 1.0000 0.0000
usemtl Material004
s off
f 17/49/13 18/50/13 20/51/13 19/52/13
f 19/53/14 20/54/14 24/55/14 23/56/14
f 23/57/15 24/58/15 22/59/15 21/60/15
f 21/61/16 22/62/16 18/63/16 17/64/16
f 19/65/17 23/66/17 21/67/17 17/68/17
f 24/69/18 20/70/18 18/71/18 22/72/18
o Cube_Cube.001
v -2.000000 -0.060000 -0.904550
v -2.000000 0.060000 -0.904550
v -2.000000 -0.060000 -1.044550
v -2.000000 0.060000 -1.044550
v 2.000000 -0.060000 -0.904550
v 2.000000 0.060000 -0.904550
v 2.000000 -0.060000 -1.044550
v 2.000000 0.060000 -1.044550
vt -0.024428 0.947862
vt -0.024428 0.048012
vt 1.025395 0.048012
vt 1.025395 0.947861
vt -0.024428 0.043301
vt -0.024428 -0.856543
vt 29.970354 -0.856563
vt 29.970354 0.043301
vt 2.079931 0.048012
vt 2.079931 0.947862
vt 1.030107 0.947862
vt 1.030107 0.048012
vt 29.970354 -1.761139
vt 29.970354 -0.861295
vt -0.024428 -0.861275
vt -0.024428 -1.761139
vt -0.024428 -3.870194
vt 29.970743 -3.870245
vt 29.970743 -2.820411
vt -0.024428 -2.820395
vt 29.970747 -1.765852
vt -0.024428 -1.765850
vt -0.024425 -2.815683
vt 29.970747 -2.815652
vn -1.0000 0.0000 0.0000
vn 0.0000 0.0000 -1.0000
vn 1.0000 0.0000 0.0000
vn 0.0000 0.0000 1.0000
vn 0.0000 -1.0000 0.0000
vn 0.0000 1.0000 0.0000
usemtl Material004
s off
f 25/73/19 26/74/19 28/75/19 27/76/19
f 27/77/20 28/78/20 32/79/20 31/80/20
f 31/81/21 32/82/21 30/83/21 29/84/21
f 29/85/22 30/86/22 26/87/22 25/88/22
f 27/89/23 31/90/23 29/91/23 25/92/23
f 32/93/24 28/94/24 26/95/24 30/96/24
o tatami_Cube
v 2.000000 -0.050000 -1.000000
v 2.000000 -0.050000 1.000000
v -2.000000 -0.050000 1.000000
v -1.999999 -0.050000 -1.000000
v 2.000001 0.050000 -0.999999
v 1.999999 0.050000 1.000001
v -2.000001 0.050000 1.000000
v -2.000000 0.050000 -1.000000
v 2.000000 -0.050000 0.000000
v 0.000000 -0.050000 -1.000000
v 2.000000 0.000000 -1.000000
v 0.000000 -0.050000 1.000000
v 1.999999 0.000000 1.000000
v -2.000000 -0.050000 -0.000000
v -2.000000 0.000000 1.000000
v -2.000000 0.000000 -1.000000
v 2.000000 0.050000 0.000001
v 0.000000 0.050000 -1.000000
v -0.000001 0.050000 1.000000
v -2.000000 0.050000 -0.000000
v 0.000000 0.000000 -1.000000
v -2.000000 0.000000 -0.000000
v -0.000001 0.000000 1.000000
v 2.000000 0.000000 0.000000
v -0.000000 0.050000 0.000000
v 0.000000 -0.050000 -0.000000
vt -3.493054 0.500000
vt -5.487188 0.500000
vt -5.487188 -1.494133
vt -3.493055 -1.494133
vt -3.493054 -3.493053
vt -5.487188 -3.493052
vt -5.487188 -5.487185
vt -3.493055 -5.487186
vt 0.500000 -3.493054
vt 0.500000 -1.498920
vt -1.494133 -1.498920
vt -1.494133 -3.493053
vt 0.500000 0.500000
vt 0.500000 2.494134
vt -1.494133 2.494134
vt -1.494133 0.500001
vt 4.493054 -3.493053
vt 4.493054 -5.487188
vt 6.487188 -5.487188
vt 6.487188 -3.493053
vt -3.493054 4.493054
vt -3.493054 6.487188
vt -5.487188 6.487188
vt -5.487188 4.493054
vt -3.493054 2.498921
vt -5.487188 2.498922
vt -1.498920 2.498921
vt -1.498920 4.493054
vt -1.498920 6.487188
vt 4.493054 -1.498920
vt 6.487188 -1.498920
vt 2.498921 -1.498920
vt 2.498921 -3.493053
vt 2.498921 -5.487188
vt 0.500000 -1.494133
vt -1.494133 -1.494133
vt 2.494134 -1.494133
vt 2.494133 0.500000
vt 2.494133 2.494133
vt 0.500001 -5.487188
vt -1.494132 -5.487188
vt 2.494134 -5.487188
vt 2.494133 -3.493054
vt 2.494133 -1.498921
vt -1.498920 -3.493054
vt -1.498921 -5.487188
vt -1.498919 -1.498921
vt -3.493053 -1.498920
vt -5.487188 -1.498920
vt -1.498921 0.500000
vt -1.498921 -1.494133
vt -1.498920 2.494133
vt -3.493054 2.494134
vt -5.487188 2.494134
vn 0.0000 -1.0000 -0.0000
vn 0.0000 1.0000 0.0000
vn 1.0000 0.0000 0.0000
vn -0.0000 -0.0000 1.0000
vn -1.0000 -0.0000 -0.0000
vn 0.0000 0.0000 -1.0000
usemtl Material
s off
f 58/97/25 44/98/25 35/99/25 46/100/25
f 57/101/26 52/102/26 39/103/26 51/104/26
f 56/105/27 49/106/27 38/107/27 45/108/27
f 55/109/28 51/110/28 39/111/28 47/112/28
f 54/113/29 52/114/29 40/115/29 48/116/29
f 53/117/30 42/118/30 36/119/30 48/120/30
f 50/121/30 53/117/30 48/120/30 40/122/30
f 37/123/30 43/124/30 53/117/30 50/121/30
f 43/124/30 33/125/30 42/118/30 53/117/30
f 46/126/29 54/113/29 48/116/29 36/127/29
f 35/128/29 47/129/29 54/113/29 46/126/29
f 47/129/29 39/130/29 52/114/29 54/113/29
f 44/131/28 55/109/28 47/112/28 35/132/28
f 34/133/28 45/134/28 55/109/28 44/131/28
f 45/134/28 38/135/28 51/110/28 55/109/28
f 41/136/27 56/105/27 45/108/27 34/137/27
f 33/138/27 43/139/27 56/105/27 41/136/27
f 43/139/27 37/140/27 49/106/27 56/105/27
f 49/141/26 57/101/26 51/104/26 38/142/26
f 37/143/26 50/144/26 57/101/26 49/141/26
f 50/144/26 40/145/26 52/102/26 57/101/26
f 42/146/25 58/97/25 46/100/25 36/147/25
f 33/148/25 41/149/25 58/97/25 42/146/25
f 41/149/25 34/150/25 44/98/25 58/97/25
